<svg height="682.667" version="1" viewBox="0 0 512.000000 512.000000" width="682.667"
     xmlns="http://www.w3.org/2000/svg">
  <path
    d="M144.5 33.6c-58.6 8.6-102 43.7-111 89.9-2.2 10.8-1.3 27.9 2 39 4.9 16.7 12.4 28.7 27.4 44 7.9 8 9.1 9.7 10.6 15 3.8 14 9.6 26.2 16.8 36 5.4 7.2 17.3 17.9 25.6 22.9 8.6 5.2 24.4 11.1 32.6 12.2 2.8.3 7 .9 9.5 1.3s5.9.4 7.5 0c1.7-.4 2.5-.7 1.8-.8-2.8-.3-12.2-17.6-13.9-25.6-.7-3.5 1.6-11.1 4.6-14.7 4.1-5 8.1-6.5 18.5-7.3 23.2-1.6 41.8-6.1 60.3-14.6 7.3-3.3 18.7-9.8 21.7-12.1.6-.5 2.8-2.2 5-3.9 11.3-8.5 24.6-24.1 30.5-35.8 2.8-5.6 6.8-16.2 7.5-19.8.2-1.5.9-5 1.4-7.7 2.9-15.6-.3-35.7-8.5-51.9-17.7-35.3-57.1-60-106.4-66.6-9.6-1.3-33.2-1-43.5.5zm42.2 31.7c1.1.3 4.3.9 7 1.2 8.1 1.2 28.1 8.3 36.9 13 26.2 14.3 40.1 33.9 40.9 57.7.7 19.6-6.8 34.5-25.5 50.9-8.7 7.6-32.3 19-44.1 21.3-1.3.2-4.6.9-7.4 1.5-7.1 1.5-11.2 2-20.7 2.6-18.5 1.3-30.4 6.8-40.2 18.5-3.3 4-7.7 11-9 14.5-.5 1.5-8.2-7.1-12.1-13.5-1.8-3-4.3-8.7-5.6-12.5-5.2-16.1-6.5-19.1-9.6-23.7-1.9-2.7-6.7-8.1-10.9-12-9-8.6-15.8-18.4-19.2-28.1-3.5-9.7-3.7-23.9-.5-34.2 4.8-15.2 17.1-30.2 32.8-39.8 13.7-8.4 35.2-15.6 54-18 4-.5 30.4 0 33.2.6zM324.5 213.7c-34.5 3.8-64.9 17.7-87.1 39.8-13.8 13.7-21.6 26.6-26.6 44.1-3 10.4-3.1 31.2-.3 41.9 9.4 36.2 39.9 65.1 83 78.7 10.1 3.2 14.9 4.4 21.5 5.3 8.6 1.2 11 1.5 18.5 2 10.8.9 14.5 2 18.2 5.2 9.3 8.5 8.4 21.7-2.7 37.5-2.2 3.1-4 5.8-4 6.1 0 .5 1.8.4 12-.7 7.3-.8 10.5-1.5 19.2-4.2 19.6-6.2 36.6-19 48-36.1 5.8-8.6 8-13 10.8-21.8 5.2-16.1 5.2-16.1 14.1-25.2 4.7-4.9 10.4-11.3 12.6-14.3 22.8-31.1 23.6-70.3 1.9-102.8-7.6-11.4-21.1-24.3-34.4-32.8-15-9.7-38.3-18.6-54.2-20.9-2.4-.4-4.7-.8-5-1-.9-.6-16.7-1.7-25.5-1.9-4.4-.1-13.4.4-20 1.1zm38.4 32.3c32.6 4.9 60.6 20.4 74.4 41.2 12.9 19.5 13.5 41.4 1.5 61.6-1.8 3.1-7.1 9.5-11.7 14.2-14.3 14.5-15.9 17-21 33.5-1.7 5.5-4.1 11.9-5.4 14.2-2.5 4.7-10.6 14.9-12.4 15.7-.8.3-2.3-1.7-4-5.2-1.7-3.3-5.5-8.4-9.3-12.2-10.3-10.3-20.5-14.3-39.5-15.5-52.9-3.4-93.7-34.3-95.1-72-.6-16 4.9-30 16.7-42.9 23.1-25 66.6-38.4 105.8-32.6z"/>
</svg>
